<?xml version="1.0" encoding="utf-8"?>
<!-- Generator: Adobe Illustrator 22.0.1, SVG Export Plug-In . SVG Version: 6.00 Build 0)  -->
<svg version="1.1" id="Layer_1" xmlns="http://www.w3.org/2000/svg" xmlns:xlink="http://www.w3.org/1999/xlink" x="0px" y="0px"
	 viewBox="0 0 256 256" style="enable-background:new 0 0 256 256;" xml:space="preserve">
<style type="text/css">
	.st0{fill:#3A312A;}
	.st1{fill:#FCE8CB;}
	.st2{fill:#8AC5DC;}
	.st3{fill:#ED6E7A;}
	.st4{fill:#D7E057;}
	.st5{fill:#87796F;}
	.st6{fill:#695B51;}
	.st7{fill:#EF6D7A;}
	.st8{fill:#D6DF58;}
	.st9{fill:#6A5C52;}
	.st10{fill:#F16C7A;}
	.st11{fill:#8AC6DD;}
	.st12{fill:#D34E5C;}
	.st13{fill:#B9C239;}
	.st14{fill:#6CA8BF;}
	.st15{fill:#89C4DB;}
	.st16{fill:#D5DE58;}
	.st17{fill:#DECAAD;}
	.st18{fill:#D5DC57;}
	.st19{fill:#8AC3DA;}
	.st20{fill:#D4DB56;}
	.st21{fill:#EA6D7A;}
	.st22{fill:#FAE6CA;}
	.st23{fill:#EB6E7A;}
	.st24{fill:#F8E4C8;}
	.st25{fill:#E96C7A;}
	.st26{fill:#8AC2D9;}
	.st27{fill:#E86C7A;}
	.st28{fill:#8AC1D8;}
	.st29{fill:#D4DA55;}
</style>
<g>
	<g>
		<g>
			<path class="st2" d="M101.591,113.625h-1.756c-1.029-4.499-2.823-8.706-5.239-12.478l1.292-1.292c1.489-1.488,1.489-3.902,0-5.39
				l-6.863-6.863c-1.489-1.489-3.902-1.489-5.391,0l-1.34,1.34c-3.763-2.371-7.953-4.125-12.429-5.124v-1.92
				c0-2.105-1.706-3.812-3.812-3.812h-9.705c-2.105,0-3.812,1.707-3.812,3.812v1.92c-2.372,0.639-8.665,2.753-12.429,5.124
				l-1.34-1.34c-1.489-1.489-3.902-1.489-5.391,0l-6.863,6.863c-1.489,1.489-1.489,3.902,0,5.39l1.292,1.292
				c-2.416,3.771-4.21,7.979-5.24,12.478H20.81c-2.105,0-3.812,1.706-3.812,3.812v9.706c0,2.105,1.706,3.812,3.812,3.812h1.665
				c0.99,4.554,2.762,8.817,5.169,12.639l-1.131,1.13c-1.489,1.489-1.489,3.902,0,5.391l6.863,6.863
				c1.489,1.489,3.902,1.489,5.391,0l1.082-1.082c3.829,2.453,8.109,4.264,12.687,5.285v1.5c0,2.105,1.706,3.812,3.812,3.812h9.705
				c2.105,0,3.812-1.707,3.812-3.812v-1.5c4.578-1.021,8.858-2.832,12.687-5.285l1.082,1.082c1.489,1.489,3.902,1.489,5.391,0
				l6.863-6.863c1.489-1.489,1.489-3.902,0-5.391l-1.131-1.13c2.408-3.822,4.18-8.084,5.169-12.639h1.665
				c2.105,0,3.812-1.707,3.812-3.812v-9.706C105.402,115.332,103.696,113.625,101.591,113.625z M61.2,142.106
				c-10.944,0-19.816-8.872-19.816-19.816c0-10.944,8.872-19.816,19.816-19.816c10.944,0,19.817,8.872,19.817,19.816
				C81.017,133.234,72.145,142.106,61.2,142.106z"/>
		</g>
	</g>
	<g>
		<g>
			<path class="st0" d="M101.591,112.125h-0.578c-0.983-3.788-2.499-7.396-4.516-10.758l0.451-0.451c2.071-2.071,2.071-5.44,0-7.511
				l-6.863-6.863c-2.07-2.071-5.44-2.072-7.513,0l-0.505,0.506c-3.35-1.977-6.939-3.457-10.702-4.413v-0.736
				c0-2.929-2.383-5.312-5.313-5.312h-9.705c-2.929,0-5.312,2.383-5.312,5.312v0.793c-2.476,0.754-7.165,2.382-10.692,4.366
				l-0.517-0.517c-2.07-2.071-5.439-2.07-7.512,0l-6.862,6.863c-1.004,1.003-1.557,2.337-1.557,3.756
				c0,1.419,0.553,2.753,1.557,3.756l0.451,0.451c-2.017,3.36-3.531,6.968-4.516,10.758H20.81c-2.929,0-5.312,2.383-5.312,5.312
				v9.706c0,2.929,2.383,5.312,5.312,5.312h0.475c0.954,3.839,2.452,7.5,4.465,10.912l-0.296,0.296
				c-1.004,1.003-1.557,2.337-1.557,3.756c0,1.419,0.553,2.753,1.557,3.756l6.862,6.863c1.004,1.003,2.338,1.556,3.756,1.556
				c1.419,0,2.753-0.553,3.756-1.556l0.241-0.241c3.423,2.054,7.103,3.586,10.968,4.568v0.316c0,2.929,2.383,5.312,5.312,5.312
				h9.705c2.93,0,5.313-2.383,5.313-5.312v-0.316c3.865-0.981,7.545-2.514,10.967-4.568l0.241,0.241
				c1.003,1.003,2.337,1.556,3.756,1.556s2.753-0.553,3.756-1.556l6.863-6.863c2.071-2.071,2.071-5.44,0-7.512l-0.297-0.296
				c2.015-3.414,3.513-7.075,4.465-10.912h0.475c2.929,0,5.312-2.383,5.312-5.312v-9.706
				C106.902,114.508,104.52,112.125,101.591,112.125z M103.902,127.143c0,1.274-1.037,2.312-2.312,2.312h-1.665
				c-0.706,0-1.316,0.492-1.466,1.182c-0.938,4.317-2.61,8.408-4.973,12.158c-0.373,0.593-0.286,1.365,0.209,1.86l1.131,1.13
				c0.901,0.901,0.901,2.368,0,3.27l-6.863,6.863c-0.873,0.873-2.396,0.873-3.27,0l-1.082-1.082
				c-0.496-0.497-1.273-0.583-1.87-0.203c-3.752,2.404-7.857,4.115-12.203,5.084c-0.687,0.153-1.174,0.761-1.174,1.464v1.5
				c0,1.274-1.037,2.312-2.313,2.312h-9.705c-1.274,0-2.312-1.037-2.312-2.312v-1.5c0-0.703-0.487-1.311-1.174-1.464
				c-4.345-0.969-8.451-2.68-12.204-5.084c-0.249-0.159-0.53-0.237-0.809-0.237c-0.388,0-0.772,0.15-1.062,0.439l-1.082,1.082
				c-0.873,0.873-2.396,0.873-3.27,0l-6.862-6.863c-0.437-0.437-0.678-1.017-0.678-1.634c0-0.617,0.241-1.198,0.678-1.634
				l1.131-1.13c0.495-0.496,0.582-1.268,0.209-1.861c-2.361-3.747-4.034-7.837-4.974-12.158c-0.15-0.689-0.76-1.181-1.466-1.181
				H20.81c-1.274,0-2.312-1.037-2.312-2.312v-9.706c0-1.274,1.037-2.312,2.312-2.312h1.757c0.699,0,1.307-0.483,1.462-1.166
				c0.978-4.271,2.673-8.31,5.04-12.002c0.381-0.594,0.297-1.372-0.202-1.87l-1.292-1.292c-0.437-0.437-0.678-1.017-0.678-1.634
				c0-0.617,0.241-1.197,0.678-1.634l6.862-6.863c0.902-0.901,2.369-0.901,3.27,0l1.341,1.341c0.494,0.495,1.268,0.582,1.86,0.208
				c3.578-2.254,9.643-4.305,12.019-4.945c0.655-0.176,1.11-0.77,1.11-1.448v-1.92c0-1.274,1.037-2.312,2.312-2.312h9.705
				c1.275,0,2.313,1.037,2.313,2.312v1.92c0,0.703,0.487,1.311,1.174,1.464c4.244,0.947,8.267,2.605,11.955,4.929
				c0.594,0.375,1.366,0.287,1.861-0.209l1.339-1.34c0.873-0.873,2.396-0.873,3.27,0l6.863,6.863
				c0.437,0.437,0.677,1.017,0.677,1.634c0,0.618-0.24,1.198-0.677,1.635l-1.292,1.292c-0.498,0.498-0.583,1.276-0.202,1.87
				c2.367,3.696,4.063,7.734,5.04,12.003c0.155,0.682,0.763,1.166,1.462,1.166h1.756c1.274,0,2.312,1.037,2.312,2.312V127.143z
				 M61.2,100.974c-11.754,0-21.316,9.563-21.316,21.316c0,11.754,9.563,21.316,21.316,21.316s21.316-9.563,21.316-21.316
				C82.517,110.536,72.954,100.974,61.2,100.974z M61.2,140.606c-10.1,0-18.316-8.217-18.316-18.316s8.217-18.316,18.316-18.316
				s18.316,8.216,18.316,18.316S71.3,140.606,61.2,140.606z"/>
		</g>
	</g>
	<g>
		<g>
			<path class="st8" d="M173.903,185.937h-1.756c-1.029-4.499-2.823-8.706-5.239-12.477l1.292-1.292
				c1.489-1.489,1.489-3.902,0-5.391l-6.863-6.863c-1.489-1.489-3.902-1.489-5.39,0l-1.34,1.34
				c-3.763-2.371-7.953-4.125-12.429-5.123v-1.92c0-2.105-1.707-3.812-3.812-3.812h-9.706c-2.105,0-3.812,1.707-3.812,3.812v1.92
				c-2.372,0.639-8.665,2.753-12.429,5.123l-1.34-1.34c-1.489-1.489-3.902-1.489-5.391,0l-6.863,6.863
				c-1.489,1.489-1.489,3.902,0,5.391l1.292,1.292c-2.416,3.771-4.21,7.979-5.24,12.477h-1.756c-2.105,0-3.812,1.707-3.812,3.812
				v9.706c0,2.105,1.706,3.812,3.812,3.812h1.664c0.99,4.554,2.762,8.817,5.169,12.639l-1.131,1.131
				c-1.489,1.488-1.489,3.902,0,5.391l6.863,6.863c1.489,1.489,3.902,1.489,5.391,0l1.082-1.082
				c3.829,2.453,8.109,4.264,12.687,5.285v1.5c0,2.105,1.707,3.812,3.812,3.812h9.706c2.105,0,3.812-1.707,3.812-3.812v-1.5
				c4.578-1.021,8.858-2.832,12.687-5.285l1.082,1.082c1.489,1.489,3.902,1.489,5.39,0l6.863-6.863c1.489-1.489,1.489-3.902,0-5.391
				l-1.13-1.131c2.408-3.822,4.179-8.084,5.169-12.639h1.665c2.105,0,3.812-1.707,3.812-3.812v-9.706
				C177.714,187.644,176.008,185.937,173.903,185.937z M133.512,214.418c-10.944,0-19.816-8.872-19.816-19.816
				c0-10.944,8.872-19.816,19.816-19.816c7.039,0,13.205,3.681,16.721,9.211l2.808,13.849
				C151.489,207.243,143.349,214.418,133.512,214.418z"/>
		</g>
	</g>
	<g>
		<g>
			<path class="st0" d="M153.284,196.365c-0.824-0.138-1.589,0.418-1.725,1.236c-1.464,8.875-9.055,15.317-18.048,15.317
				c-10.1,0-18.315-8.217-18.315-18.316s8.216-18.316,18.315-18.316c6.288,0,12.065,3.184,15.455,8.516
				c0.443,0.7,1.373,0.905,2.07,0.461c0.699-0.445,0.905-1.372,0.461-2.071c-3.942-6.203-10.667-9.907-17.986-9.907
				c-11.753,0-21.315,9.563-21.315,21.316s9.563,21.316,21.315,21.316c10.469,0,19.304-7.498,21.009-17.829
				C154.655,197.272,154.102,196.5,153.284,196.365z M173.902,184.437h-0.578c-0.983-3.787-2.498-7.396-4.516-10.757l0.451-0.451
				c2.071-2.071,2.071-5.44,0-7.512l-6.863-6.863c-1.003-1.003-2.337-1.556-3.755-1.556c-1.419,0-2.753,0.553-3.756,1.556
				l-0.507,0.507c-3.351-1.978-6.94-3.458-10.702-4.413v-0.736c0-2.929-2.383-5.312-5.312-5.312h-9.706
				c-2.929,0-5.312,2.383-5.312,5.312v0.793c-2.476,0.754-7.164,2.382-10.691,4.366l-0.517-0.517
				c-1.004-1.003-2.338-1.556-3.756-1.556c-1.419,0-2.753,0.553-3.756,1.556l-6.863,6.863c-2.071,2.071-2.071,5.441,0,7.512
				l0.451,0.451c-2.018,3.361-3.532,6.97-4.516,10.757h-0.578c-2.929,0-5.312,2.383-5.312,5.312v9.706
				c0,2.929,2.383,5.311,5.312,5.311h0.474c0.954,3.84,2.452,7.501,4.465,10.913l-0.296,0.296c-2.071,2.071-2.071,5.44,0,7.512
				l6.863,6.863c1.003,1.003,2.337,1.556,3.756,1.556c1.418,0,2.752-0.553,3.756-1.556l0.241-0.241
				c3.422,2.054,7.101,3.586,10.967,4.567v0.317c0,2.929,2.383,5.311,5.312,5.311h9.706c2.929,0,5.312-2.382,5.312-5.311v-0.317
				c3.866-0.981,7.546-2.514,10.967-4.568l0.242,0.242c1.003,1.003,2.337,1.556,3.756,1.556c1.418,0,2.752-0.553,3.755-1.556
				l6.863-6.863c2.071-2.071,2.071-5.441,0-7.512l-0.296-0.296c2.013-3.412,3.511-7.073,4.465-10.913h0.474
				c2.929,0,5.312-2.382,5.312-5.311v-9.706C179.214,186.82,176.831,184.437,173.902,184.437z M176.214,199.455
				c0,1.274-1.037,2.311-2.312,2.311h-1.664c-0.706,0-1.315,0.492-1.466,1.181c-0.939,4.321-2.612,8.412-4.974,12.158
				c-0.373,0.593-0.286,1.365,0.209,1.861l1.131,1.13c0.901,0.901,0.901,2.368,0,3.27l-6.863,6.863
				c-0.873,0.874-2.396,0.874-3.269,0l-1.083-1.082c-0.497-0.498-1.273-0.583-1.87-0.202c-3.751,2.404-7.857,4.115-12.203,5.084
				c-0.687,0.153-1.174,0.761-1.174,1.464v1.501c0,1.274-1.037,2.311-2.312,2.311h-9.706c-1.274,0-2.312-1.037-2.312-2.311v-1.501
				c0-0.703-0.487-1.311-1.174-1.464c-4.346-0.969-8.452-2.68-12.203-5.084c-0.249-0.159-0.53-0.237-0.809-0.237
				c-0.388,0-0.772,0.15-1.062,0.439l-1.082,1.082c-0.873,0.874-2.396,0.874-3.27,0l-6.863-6.863c-0.901-0.901-0.901-2.368,0-3.269
				l1.131-1.13c0.495-0.496,0.582-1.268,0.209-1.861c-2.361-3.747-4.034-7.837-4.974-12.158c-0.15-0.689-0.76-1.181-1.466-1.181
				h-1.664c-1.274,0-2.312-1.037-2.312-2.311v-9.706c0-1.274,1.037-2.312,2.312-2.312h1.756c0.699,0,1.307-0.483,1.462-1.166
				c0.977-4.269,2.673-8.307,5.04-12.002c0.381-0.593,0.296-1.372-0.202-1.87l-1.292-1.292c-0.901-0.901-0.901-2.368,0-3.27
				l6.863-6.863c0.873-0.873,2.396-0.873,3.27,0l1.34,1.34c0.494,0.495,1.266,0.582,1.86,0.208
				c3.579-2.254,9.643-4.304,12.019-4.944c0.655-0.176,1.11-0.77,1.11-1.448v-1.92c0-1.274,1.037-2.312,2.312-2.312h9.706
				c1.274,0,2.312,1.037,2.312,2.312v1.92c0,0.703,0.487,1.311,1.174,1.464c4.243,0.946,8.266,2.604,11.955,4.929
				c0.595,0.374,1.366,0.287,1.86-0.208l1.341-1.341c0.873-0.872,2.396-0.874,3.269,0l6.863,6.863c0.901,0.901,0.901,2.368,0,3.27
				l-1.292,1.292c-0.498,0.498-0.583,1.276-0.202,1.87c2.367,3.696,4.063,7.734,5.04,12.002c0.155,0.682,0.763,1.166,1.462,1.166
				h1.756c1.274,0,2.312,1.037,2.312,2.312V199.455z"/>
		</g>
	</g>
	<g>
		<g>
			<path class="st7" d="M233.138,71.869h-2.701c-1.584-6.921-4.344-13.394-8.06-19.196l1.987-1.987c2.29-2.29,2.29-6.003,0-8.293
				l-10.558-10.558c-2.29-2.29-6.003-2.29-8.293,0l-2.062,2.062c-5.79-3.647-12.235-6.347-19.121-7.883v-2.954
				c0-3.238-2.625-5.864-5.864-5.864h-14.931c-3.239,0-5.864,2.626-5.864,5.864v2.954c-3.649,0.983-13.331,4.235-19.12,7.883
				l-2.062-2.062c-2.29-2.29-6.003-2.29-8.293,0l-10.558,10.558c-2.29,2.29-2.29,6.003,0,8.293l1.988,1.987
				c-3.717,5.802-6.477,12.274-8.061,19.196h-2.701c-3.239,0-5.864,2.625-5.864,5.864v14.931c0,3.239,2.625,5.864,5.864,5.864h2.561
				c1.523,7.007,4.249,13.563,7.953,19.443l-1.74,1.739c-2.29,2.29-2.29,6.003,0,8.293l10.558,10.558c2.29,2.29,6.003,2.29,8.293,0
				l1.664-1.665c5.891,3.774,12.475,6.559,19.518,8.13v2.308c0,3.238,2.626,5.864,5.864,5.864h14.931
				c3.239,0,5.864-2.625,5.864-5.864v-2.308c7.042-1.571,13.627-4.356,19.518-8.13l1.665,1.665c2.29,2.29,6.003,2.29,8.293,0
				l10.558-10.558c2.29-2.29,2.29-6.003,0-8.293l-1.739-1.739c3.704-5.88,6.43-12.437,7.953-19.443h2.561
				c3.239,0,5.864-2.625,5.864-5.864V77.733C239.002,74.494,236.376,71.869,233.138,71.869z M171,115.685
				c-16.837,0-30.486-13.649-30.486-30.486c0-9.014,3.914-17.111,10.133-22.692l11.92-6.603c2.679-0.77,5.506-1.191,8.432-1.191
				c16.837,0,30.486,13.649,30.486,30.486C201.486,102.035,187.837,115.685,171,115.685z"/>
		</g>
	</g>
	<g>
		<g>
			<path class="st0" d="M233.138,70.369h-1.518c-1.538-6.177-4.002-12.045-7.339-17.48l1.143-1.143
				c1.391-1.391,2.157-3.24,2.157-5.207s-0.767-3.816-2.157-5.207l-10.558-10.558c-1.391-1.391-3.24-2.157-5.207-2.157
				s-3.816,0.766-5.207,2.157l-1.224,1.223c-5.418-3.271-11.26-5.679-17.398-7.173v-1.764c0-4.061-3.304-7.364-7.364-7.364h-14.932
				c-4.061,0-7.364,3.303-7.364,7.364v1.82c-4.108,1.211-11.997,3.992-17.391,7.125l-1.231-1.231
				c-1.391-1.391-3.24-2.157-5.207-2.157s-3.816,0.766-5.207,2.157l-10.558,10.558c-1.391,1.391-2.157,3.24-2.157,5.207
				s0.767,3.816,2.157,5.207l1.143,1.143c-3.337,5.435-5.801,11.303-7.339,17.48h-1.518c-4.061,0-7.364,3.303-7.364,7.364v14.932
				c0,4.061,3.304,7.364,7.364,7.364h1.363c1.488,6.256,3.923,12.207,7.251,17.722l-0.9,0.9c-2.871,2.871-2.871,7.543,0,10.415
				l10.558,10.558c1.391,1.391,3.24,2.157,5.207,2.157s3.816-0.766,5.207-2.157l0.819-0.819c5.526,3.392,11.504,5.882,17.803,7.415
				v1.118c0,4.061,3.304,7.364,7.364,7.364h14.932c4.061,0,7.364-3.303,7.364-7.364v-1.118c6.299-1.533,12.277-4.023,17.803-7.415
				l0.819,0.819c1.391,1.391,3.24,2.157,5.207,2.157s3.816-0.766,5.207-2.157l10.558-10.558c2.871-2.871,2.871-7.543,0-10.415
				l-0.9-0.9c3.328-5.515,5.763-11.465,7.251-17.722h1.363c4.061,0,7.364-3.303,7.364-7.364V77.732
				C240.502,73.672,237.198,70.369,233.138,70.369z M237.502,92.664c0,2.406-1.958,4.364-4.364,4.364h-2.561
				c-0.706,0-1.315,0.492-1.466,1.181c-1.465,6.738-4.074,13.118-7.757,18.963c-0.373,0.593-0.286,1.365,0.209,1.86l1.739,1.738
				c1.701,1.702,1.701,4.471,0,6.172l-10.558,10.558c-0.824,0.824-1.92,1.278-3.086,1.278s-2.262-0.454-3.086-1.279l-1.665-1.664
				c-0.498-0.497-1.273-0.583-1.87-0.202c-5.85,3.749-12.254,6.417-19.035,7.93c-0.686,0.153-1.173,0.761-1.173,1.464v2.308
				c0,2.406-1.958,4.364-4.364,4.364h-14.932c-2.406,0-4.364-1.958-4.364-4.364v-2.308c0-0.703-0.487-1.311-1.173-1.464
				c-6.781-1.513-13.186-4.181-19.035-7.93c-0.249-0.159-0.53-0.237-0.809-0.237c-0.388,0-0.771,0.149-1.062,0.439l-1.665,1.665
				c-0.824,0.824-1.92,1.278-3.086,1.278s-2.262-0.454-3.086-1.278l-10.558-10.558c-1.701-1.702-1.701-4.471,0-6.172l1.739-1.739
				c0.495-0.496,0.582-1.268,0.209-1.86c-3.683-5.845-6.292-12.226-7.757-18.963c-0.15-0.689-0.76-1.181-1.466-1.181h-2.561
				c-2.406,0-4.364-1.958-4.364-4.364V77.732c0-2.406,1.958-4.364,4.364-4.364h2.701c0.699,0,1.306-0.483,1.462-1.166
				c1.524-6.658,4.169-12.957,7.861-18.721c0.381-0.593,0.296-1.372-0.202-1.87l-1.987-1.987c-0.824-0.824-1.278-1.92-1.278-3.086
				s0.454-2.261,1.278-3.085l10.558-10.558c0.824-0.824,1.92-1.278,3.086-1.278s2.262,0.454,3.086,1.278l2.063,2.062
				c0.494,0.496,1.268,0.583,1.86,0.208c5.582-3.517,15.017-6.708,18.71-7.703c0.655-0.176,1.11-0.77,1.11-1.448v-2.954
				c0-2.406,1.958-4.364,4.364-4.364h14.932c2.406,0,4.364,1.958,4.364,4.364v2.954c0,0.703,0.487,1.311,1.174,1.464
				c6.621,1.477,12.895,4.063,18.646,7.688c0.593,0.374,1.366,0.287,1.86-0.208l2.063-2.062c0.824-0.824,1.92-1.278,3.086-1.278
				s2.262,0.454,3.086,1.278l10.558,10.558c0.824,0.824,1.278,1.92,1.278,3.085s-0.454,2.262-1.278,3.086l-1.987,1.987
				c-0.498,0.498-0.583,1.276-0.202,1.87c3.692,5.764,6.337,12.063,7.861,18.721c0.156,0.682,0.763,1.166,1.462,1.166h2.701
				c2.406,0,4.364,1.958,4.364,4.364V92.664z M171,53.212c-2.984,0-5.961,0.42-8.847,1.249c-0.796,0.229-1.257,1.06-1.027,1.856
				c0.229,0.797,1.061,1.253,1.855,1.028c2.616-0.752,5.314-1.133,8.019-1.133c15.983,0,28.986,13.003,28.986,28.986
				S186.983,114.185,171,114.185s-28.986-13.003-28.986-28.986c0-8.216,3.512-16.08,9.636-21.576
				c0.616-0.553,0.668-1.501,0.114-2.118c-0.552-0.616-1.501-0.669-2.118-0.114c-6.757,6.064-10.632,14.742-10.632,23.808
				c0,17.637,14.349,31.986,31.986,31.986s31.986-14.349,31.986-31.986S188.638,53.212,171,53.212z"/>
		</g>
	</g>
	<g>
		<g>
			<path class="st12" d="M221.121,53.495c-0.384-0.599-0.309-1.38,0.194-1.883l1.866-1.865c0.717-0.717,1.238-1.633,1.364-2.638
				c0.173-1.373-0.285-2.698-1.242-3.655l-10.437-10.437c-0.717-0.717-1.633-1.238-2.638-1.364
				c-1.373-0.173-2.697,0.285-3.655,1.243l-2.063,2.062c-0.5,0.5-1.275,0.577-1.874,0.2c-5.654-3.56-11.813-6.112-18.307-7.599
				v7.443c0,1.155,0.73,2.2,1.83,2.55c15.518,4.933,27.748,17.231,32.586,32.788c0.345,1.109,1.395,1.846,2.556,1.846h7.669
				C227.448,65.541,224.807,59.252,221.121,53.495z"/>
		</g>
	</g>
	<g>
		<g>
			<path class="st12" d="M221.563,119.032c-0.5-0.5-0.577-1.275-0.2-1.873c3.543-5.628,6.08-11.753,7.57-18.211h-7.899
				c-1.146,0-2.186,0.72-2.543,1.809c-4.984,15.22-17.052,27.227-32.33,32.086c-1.101,0.35-1.832,1.395-1.832,2.55v8.09
				c6.652-1.524,12.941-4.156,18.696-7.841c0.599-0.383,1.38-0.309,1.883,0.194l1.545,1.544c0.717,0.716,1.633,1.237,2.639,1.363
				c1.373,0.172,2.696-0.286,3.652-1.243l10.437-10.436c0.717-0.717,1.238-1.634,1.364-2.64c0.172-1.373-0.286-2.696-1.243-3.654
				L221.563,119.032z"/>
		</g>
	</g>
</g>
</svg>
